<?xml version="1.0" encoding="UTF-8" standalone="no"?><!DOCTYPE svg PUBLIC "-//W3C//DTD SVG 1.1//EN" "http://www.w3.org/Graphics/SVG/1.1/DTD/svg11.dtd"><svg width="100%" height="100%" viewBox="0 0 50 50" version="1.1" xmlns="http://www.w3.org/2000/svg" xmlns:xlink="http://www.w3.org/1999/xlink" xml:space="preserve" xmlns:serif="http://www.serif.com/" style="fill-rule:evenodd;clip-rule:evenodd;stroke-linecap:square;stroke-miterlimit:1.5;"><g><path d="M16.484,12.886l-0.152,0.131l-0.151,0.132l-0.149,0.135l-0.148,0.137l-0.145,0.139l-0.143,0.142l-0.142,0.143l-0.14,0.145l-0.138,0.147l-0.136,0.149l-0.134,0.152l-0.131,0.153l-0.13,0.155l-0.128,0.156l-0.126,0.159l-0.124,0.161l-0.121,0.162l-0.12,0.164l-0.117,0.166l-0.115,0.168l-0.113,0.169l-0.111,0.171l-0.109,0.173l-0.106,0.175l-0.104,0.176l-0.102,0.177l-0.099,0.18l-0.097,0.18l-0.095,0.183l-0.092,0.184l-0.09,0.185l-0.088,0.187l-0.085,0.188l-0.082,0.19l-0.08,0.191l-0.078,0.193l-0.075,0.194l-0.073,0.195l-0.07,0.197l-0.067,0.197l-0.065,0.2l-0.062,0.2l-0.059,0.202l-0.057,0.202l-0.054,0.204l-0.051,0.206l-0.048,0.206l-0.046,0.207l-0.043,0.209l-0.04,0.209l-0.038,0.211l-0.034,0.212l-0.016,0.106l-0.015,0.106l-0.015,0.107l-0.014,0.107l-0.013,0.107l-0.013,0.107l-0.012,0.108l-0.011,0.108l-0.01,0.108l-0.009,0.108l-0.009,0.109l-0.008,0.109l-0.008,0.109l-0.006,0.109l-0.006,0.109l-0.005,0.11l-0.004,0.11l-0.004,0.11l-0.002,0.11l-0.002,0.11l-0.001,0.111l-0.001,0.111l0.001,0.128l0.001,0.128l0.003,0.127l0.003,0.127l0.005,0.127l0.006,0.127l0.006,0.126l0.008,0.126l0.009,0.126l0.009,0.126l0.011,0.125l0.012,0.125l0.013,0.124l0.013,0.125l0.015,0.124l0.015,0.123l0.017,0.124l0.018,0.123l0.018,0.122l0.02,0.123l0.02,0.122l0.022,0.122l0.022,0.121l0.023,0.121l0.024,0.121l0.026,0.12l0.026,0.12l0.027,0.119l0.028,0.119l0.029,0.119l0.029,0.119l0.031,0.118l0.032,0.117l0.032,0.118l0.034,0.116l0.034,0.117l0.035,0.116l0.036,0.116l0.037,0.115l0.038,0.115l0.039,0.114l0.039,0.114l0.041,0.113l0.041,0.113l0.042,0.113l0.043,0.112l0.044,0.112l0.045,0.111l0.045,0.111l0.047,0.11l0.047,0.11l0.048,0.11l0.049,0.108l0.049,0.109l0.051,0.108l0.051,0.107l0.052,0.107l0.053,0.107l0.054,0.106l0.055,0.105l0.055,0.105l0.056,0.104l0.057,0.104l0.057,0.104l0.059,0.103l0.059,0.102l0.06,0.102l0.061,0.101l0.061,0.101l0.062,0.1l0.063,0.099l0.064,0.099l0.065,0.099l0.065,0.098l0.066,0.097l0.066,0.097l0.068,0.096l0.068,0.095l0.069,0.095l0.069,0.095l0.07,0.094l0.071,0.093l0.072,0.092l0.072,0.092l0.073,0.092l0.074,0.09l0.074,0.09l0.076,0.09l0.075,0.089l0.077,0.088l0.077,0.088l0.077,0.086l0.079,0.087l0.079,0.085l0.08,0.085l0.08,0.085l0.081,0.083l0.082,0.083l0.082,0.082l0.083,0.082l0.083,0.081l0.084,0.08l0.085,0.079l0.085,0.079l0.086,0.078l0.087,0.078l0.087,0.076l0.088,0.076l0.088,0.076l0.089,0.074l0.089,0.074l0.091,0.073l0.09,0.072l0.091,0.072l0.092,0.071l0.092,0.07l0.093,0.069l0.094,0.069l0.094,0.067l0.094,0.068l0.095,0.066l0.096,0.065l0.096,0.065l0.097,0.064l0.097,0.063l0.098,0.062l0.098,0.062l0.099,0.061l-18.262,0l0,-24.486l16.639,0l-0.155,0.129Zm33.516,24.357l-17.417,0l0.099,-0.061l0.098,-0.062l0.098,-0.062l0.097,-0.063l0.097,-0.064l0.096,-0.065l0.096,-0.065l0.095,-0.066l0.094,-0.068l0.094,-0.067l0.094,-0.069l0.093,-0.069l0.092,-0.07l0.092,-0.071l0.091,-0.072l0.091,-0.072l0.09,-0.073l0.089,-0.074l0.089,-0.074l0.088,-0.076l0.088,-0.076l0.087,-0.076l0.087,-0.078l0.086,-0.078l0.085,-0.079l0.085,-0.079l0.084,-0.08l0.083,-0.081l0.083,-0.082l0.083,-0.082l0.081,-0.083l0.081,-0.083l0.08,-0.085l0.08,-0.085l0.079,-0.085l0.079,-0.087l0.077,-0.086l0.077,-0.088l0.077,-0.088l0.076,-0.089l0.075,-0.09l0.074,-0.09l0.074,-0.09l0.073,-0.092l0.072,-0.092l0.072,-0.092l0.071,-0.093l0.07,-0.094l0.069,-0.095l0.069,-0.095l0.068,-0.095l0.068,-0.096l0.066,-0.097l0.066,-0.097l0.065,-0.098l0.065,-0.099l0.064,-0.099l0.063,-0.099l0.062,-0.1l0.061,-0.101l0.061,-0.101l0.06,-0.102l0.059,-0.102l0.059,-0.103l0.057,-0.104l0.057,-0.104l0.056,-0.104l0.056,-0.105l0.054,-0.105l0.054,-0.106l0.053,-0.107l0.052,-0.107l0.051,-0.107l0.051,-0.108l0.049,-0.109l0.049,-0.108l0.048,-0.11l0.047,-0.11l0.047,-0.11l0.045,-0.111l0.045,-0.111l0.044,-0.112l0.043,-0.112l0.042,-0.113l0.041,-0.113l0.041,-0.113l0.039,-0.114l0.039,-0.114l0.038,-0.115l0.037,-0.115l0.036,-0.116l0.035,-0.116l0.035,-0.117l0.033,-0.116l0.032,-0.118l0.032,-0.117l0.031,-0.118l0.03,-0.119l0.028,-0.119l0.028,-0.119l0.027,-0.119l0.027,-0.12l0.025,-0.12l0.024,-0.121l0.023,-0.121l0.023,-0.121l0.021,-0.122l0.02,-0.122l0.02,-0.123l0.018,-0.122l0.018,-0.123l0.017,-0.124l0.015,-0.123l0.015,-0.124l0.014,-0.125l0.012,-0.124l0.012,-0.125l0.011,-0.125l0.009,-0.126l0.009,-0.126l0.008,-0.126l0.006,-0.126l0.006,-0.127l0.005,-0.127l0.003,-0.127l0.003,-0.127l0.001,-0.128l0.001,-0.128l-0.001,-0.111l-0.001,-0.111l-0.002,-0.11l-0.002,-0.11l-0.004,-0.11l-0.004,-0.11l-0.005,-0.11l-0.006,-0.109l-0.006,-0.109l-0.008,-0.109l-0.008,-0.109l-0.008,-0.109l-0.01,-0.108l-0.01,-0.108l-0.011,-0.108l-0.012,-0.108l-0.013,-0.107l-0.013,-0.107l-0.014,-0.107l-0.014,-0.107l-0.016,-0.106l-0.016,-0.106l-0.034,-0.212l-0.038,-0.211l-0.04,-0.209l-0.043,-0.209l-0.046,-0.207l-0.048,-0.206l-0.051,-0.206l-0.054,-0.204l-0.057,-0.202l-0.059,-0.202l-0.062,-0.2l-0.065,-0.2l-0.067,-0.197l-0.07,-0.197l-0.073,-0.195l-0.075,-0.194l-0.077,-0.193l-0.081,-0.191l-0.082,-0.19l-0.085,-0.188l-0.088,-0.187l-0.09,-0.185l-0.092,-0.184l-0.095,-0.183l-0.097,-0.18l-0.099,-0.18l-0.102,-0.177l-0.104,-0.176l-0.106,-0.175l-0.109,-0.173l-0.111,-0.171l-0.113,-0.169l-0.115,-0.168l-0.117,-0.166l-0.12,-0.164l-0.121,-0.162l-0.124,-0.161l-0.126,-0.159l-0.128,-0.156l-0.129,-0.155l-0.132,-0.153l-0.134,-0.152l-0.136,-0.149l-0.138,-0.147l-0.14,-0.145l-0.141,-0.143l-0.144,-0.142l-0.145,-0.139l-0.148,-0.137l-0.149,-0.135l-0.151,-0.132l-0.152,-0.131l-0.155,-0.129l15.794,0l0,24.486Zm-9.21,-21.298l0.036,0.071l0.112,0.223l0.109,0.225l0.106,0.226l0.103,0.228l0.1,0.23l0.097,0.232l0.094,0.233l0.091,0.235l0.088,0.236l0.085,0.238l0.081,0.24l0.078,0.241l0.075,0.242l0.072,0.244l0.069,0.245l0.065,0.247l0.062,0.248l0.059,0.25l0.055,0.25l0.052,0.252l0.048,0.254l0.046,0.254l0.04,0.25l0.021,0.134l0.018,0.128l0.018,0.129l0.017,0.129l0.016,0.13l0.015,0.129l0.014,0.13l0.013,0.13l0.013,0.13l0.011,0.131l0.011,0.131l0.009,0.131l0.009,0.131l0.008,0.132l0.007,0.132l0.006,0.132l0.005,0.132l0.004,0.132l0.004,0.133l0.002,0.133l0.001,0.133l0.001,0.134l-0.001,0.153l-0.002,0.153l-0.003,0.154l-0.004,0.153l-0.006,0.152l-0.007,0.153l-0.008,0.152l-0.009,0.152l-0.01,0.152l-0.012,0.151l-0.013,0.151l-0.014,0.151l-0.015,0.15l-0.017,0.15l-0.017,0.149l-0.019,0.15l-0.02,0.149l-0.022,0.148l-0.022,0.148l-0.023,0.148l-0.025,0.147l-0.026,0.147l-0.027,0.147l-0.028,0.146l-0.029,0.146l-0.031,0.145l-0.031,0.145l-0.033,0.145l-0.034,0.144l-0.035,0.144l-0.036,0.143l-0.037,0.143l-0.038,0.142l-0.039,0.142l-0.041,0.141l-0.041,0.141l-0.043,0.14l-0.044,0.14l-0.044,0.14l-0.046,0.139l-0.047,0.138l-0.048,0.138l-0.049,0.137l-0.05,0.137l-0.051,0.137l-0.052,0.135l-0.053,0.136l-0.054,0.135l-0.056,0.134l-0.056,0.133l-0.057,0.133l-0.058,0.133l-0.059,0.132l-0.06,0.131l-0.062,0.131l-0.062,0.13l-0.063,0.13l-0.064,0.129l-0.065,0.128l-0.066,0.128l-0.067,0.127l-0.068,0.127l-0.069,0.126l-0.07,0.125l-0.071,0.125l-0.072,0.124l-0.073,0.124l-0.073,0.122l-0.048,0.079l6.671,0l0,-18.11l-6.022,0Zm-37.602,0l0,18.11l7.516,0l-0.048,-0.079l-0.073,-0.122l-0.073,-0.124l-0.072,-0.124l-0.071,-0.125l-0.07,-0.125l-0.068,-0.126l-0.069,-0.127l-0.067,-0.127l-0.066,-0.128l-0.065,-0.128l-0.064,-0.129l-0.063,-0.13l-0.062,-0.13l-0.061,-0.131l-0.061,-0.131l-0.059,-0.132l-0.058,-0.133l-0.057,-0.133l-0.056,-0.133l-0.056,-0.134l-0.054,-0.135l-0.053,-0.136l-0.052,-0.135l-0.051,-0.137l-0.05,-0.137l-0.049,-0.137l-0.048,-0.138l-0.047,-0.138l-0.046,-0.139l-0.044,-0.14l-0.044,-0.14l-0.043,-0.14l-0.041,-0.141l-0.04,-0.141l-0.04,-0.142l-0.038,-0.142l-0.037,-0.143l-0.036,-0.143l-0.035,-0.144l-0.034,-0.144l-0.033,-0.145l-0.031,-0.145l-0.031,-0.145l-0.029,-0.146l-0.028,-0.146l-0.027,-0.147l-0.026,-0.147l-0.025,-0.147l-0.023,-0.148l-0.022,-0.148l-0.022,-0.148l-0.02,-0.149l-0.019,-0.15l-0.017,-0.149l-0.017,-0.15l-0.015,-0.15l-0.014,-0.151l-0.013,-0.151l-0.012,-0.151l-0.01,-0.152l-0.009,-0.152l-0.008,-0.152l-0.007,-0.152l-0.006,-0.153l-0.004,-0.153l-0.003,-0.154l-0.002,-0.153l-0.001,-0.153l0.001,-0.134l0.001,-0.133l0.002,-0.133l0.004,-0.133l0.004,-0.132l0.005,-0.132l0.006,-0.132l0.007,-0.132l0.008,-0.132l0.009,-0.131l0.009,-0.131l0.011,-0.131l0.011,-0.131l0.013,-0.13l0.013,-0.13l0.014,-0.13l0.015,-0.129l0.016,-0.13l0.017,-0.129l0.018,-0.129l0.019,-0.128l0.02,-0.134l0.041,-0.25l0.045,-0.254l0.048,-0.254l0.052,-0.252l0.055,-0.25l0.059,-0.25l0.062,-0.248l0.065,-0.247l0.069,-0.245l0.072,-0.244l0.075,-0.242l0.078,-0.241l0.082,-0.24l0.084,-0.238l0.088,-0.236l0.091,-0.235l0.094,-0.233l0.097,-0.232l0.1,-0.23l0.103,-0.228l0.106,-0.226l0.109,-0.225l0.112,-0.223l0.036,-0.071l-6.867,0Z" style="fill:#1b1b1b;"/><path d="M40.596,9.385l5.149,0" style="fill:none;stroke:#1b1b1b;stroke-width:2.79px;"/><path d="M25.152,13.343l0.152,0.002l0.151,0.005l0.15,0.007l0.151,0.008l0.149,0.011l0.149,0.012l0.149,0.014l0.148,0.016l0.147,0.017l0.147,0.02l0.147,0.021l0.145,0.023l0.146,0.025l0.144,0.026l0.144,0.029l0.143,0.03l0.143,0.031l0.142,0.034l0.141,0.035l0.141,0.037l0.14,0.038l0.139,0.04l0.139,0.042l0.138,0.044l0.137,0.045l0.136,0.046l0.136,0.049l0.134,0.049l0.134,0.052l0.134,0.053l0.132,0.054l0.132,0.056l0.13,0.058l0.13,0.059l0.129,0.061l0.129,0.062l0.127,0.064l0.126,0.065l0.126,0.067l0.125,0.068l0.123,0.069l0.123,0.071l0.122,0.072l0.121,0.074l0.12,0.075l0.119,0.077l0.118,0.078l0.117,0.079l0.115,0.081l0.115,0.082l0.114,0.083l0.113,0.085l0.112,0.086l0.11,0.087l0.11,0.088l0.108,0.09l0.108,0.091l0.106,0.092l0.105,0.094l0.104,0.094l0.103,0.096l0.102,0.098l0.1,0.098l0.099,0.099l0.098,0.101l0.097,0.102l0.096,0.103l0.094,0.104l0.093,0.105l0.092,0.107l0.091,0.107l0.089,0.108l0.088,0.11l0.087,0.111l0.086,0.111l0.084,0.113l0.082,0.114l0.082,0.115l0.08,0.116l0.079,0.116l0.077,0.118l0.076,0.119l0.074,0.12l0.073,0.12l0.072,0.122l0.07,0.122l0.069,0.124l0.067,0.124l0.066,0.125l0.064,0.126l0.063,0.127l0.061,0.128l0.06,0.129l0.058,0.13l0.057,0.13l0.055,0.131l0.053,0.132l0.052,0.133l0.051,0.133l0.048,0.134l0.047,0.135l0.046,0.136l0.044,0.137l0.042,0.137l0.041,0.138l0.038,0.139l0.038,0.139l0.035,0.14l0.034,0.14l0.032,0.142l0.03,0.142l0.029,0.142l0.026,0.143l0.025,0.144l0.024,0.145l0.021,0.144l0.02,0.146l0.018,0.146l0.016,0.147l0.014,0.147l0.012,0.148l0.01,0.148l0.009,0.148l0.007,0.15l0.005,0.149l0.002,0.15l0.001,0.151l-0.001,0.151l-0.002,0.15l-0.005,0.149l-0.007,0.15l-0.009,0.148l-0.01,0.148l-0.012,0.148l-0.014,0.147l-0.016,0.147l-0.018,0.146l-0.02,0.146l-0.021,0.144l-0.024,0.145l-0.025,0.144l-0.026,0.143l-0.029,0.142l-0.03,0.142l-0.032,0.142l-0.034,0.14l-0.035,0.14l-0.038,0.139l-0.038,0.139l-0.041,0.138l-0.042,0.137l-0.044,0.137l-0.046,0.136l-0.047,0.135l-0.048,0.134l-0.051,0.133l-0.052,0.133l-0.053,0.132l-0.055,0.131l-0.057,0.13l-0.058,0.13l-0.06,0.129l-0.061,0.128l-0.063,0.127l-0.064,0.126l-0.066,0.125l-0.067,0.124l-0.069,0.124l-0.07,0.122l-0.072,0.122l-0.073,0.12l-0.074,0.12l-0.076,0.119l-0.077,0.118l-0.079,0.116l-0.08,0.116l-0.082,0.115l-0.082,0.114l-0.084,0.113l-0.086,0.111l-0.087,0.111l-0.088,0.11l-0.089,0.108l-0.091,0.107l-0.092,0.107l-0.093,0.105l-0.094,0.104l-0.096,0.103l-0.097,0.102l-0.098,0.101l-0.099,0.099l-0.1,0.098l-0.102,0.098l-0.103,0.096l-0.104,0.094l-0.105,0.094l-0.106,0.092l-0.108,0.091l-0.108,0.09l-0.11,0.088l-0.11,0.087l-0.112,0.086l-0.113,0.085l-0.114,0.083l-0.115,0.082l-0.115,0.081l-0.117,0.079l-0.118,0.078l-0.119,0.077l-0.12,0.075l-0.121,0.074l-0.122,0.072l-0.123,0.071l-0.123,0.069l-0.125,0.068l-0.126,0.067l-0.126,0.065l-0.127,0.064l-0.129,0.062l-0.129,0.061l-0.13,0.059l-0.13,0.058l-0.132,0.056l-0.132,0.054l-0.134,0.053l-0.134,0.052l-0.134,0.049l-0.136,0.049l-0.136,0.046l-0.137,0.045l-0.138,0.044l-0.139,0.042l-0.139,0.04l-0.14,0.038l-0.141,0.037l-0.141,0.035l-0.142,0.034l-0.143,0.031l-0.143,0.03l-0.144,0.029l-0.144,0.026l-0.146,0.025l-0.145,0.023l-0.147,0.021l-0.147,0.02l-0.147,0.017l-0.148,0.016l-0.149,0.014l-0.149,0.012l-0.149,0.011l-0.151,0.008l-0.15,0.007l-0.151,0.005l-0.152,0.002l-0.152,0.001l-0.152,-0.001l-0.152,-0.002l-0.151,-0.005l-0.15,-0.007l-0.151,-0.008l-0.149,-0.011l-0.149,-0.012l-0.149,-0.014l-0.148,-0.016l-0.147,-0.017l-0.147,-0.02l-0.147,-0.021l-0.145,-0.023l-0.146,-0.025l-0.144,-0.026l-0.144,-0.029l-0.143,-0.03l-0.143,-0.031l-0.142,-0.034l-0.141,-0.035l-0.141,-0.037l-0.14,-0.038l-0.139,-0.04l-0.139,-0.042l-0.138,-0.044l-0.137,-0.045l-0.136,-0.046l-0.136,-0.049l-0.134,-0.049l-0.134,-0.052l-0.134,-0.053l-0.132,-0.054l-0.132,-0.056l-0.13,-0.058l-0.13,-0.059l-0.129,-0.061l-0.129,-0.062l-0.127,-0.064l-0.126,-0.065l-0.126,-0.067l-0.125,-0.068l-0.123,-0.069l-0.123,-0.071l-0.122,-0.072l-0.121,-0.074l-0.12,-0.075l-0.119,-0.077l-0.118,-0.078l-0.117,-0.079l-0.115,-0.081l-0.115,-0.082l-0.114,-0.083l-0.113,-0.085l-0.112,-0.086l-0.11,-0.087l-0.11,-0.088l-0.108,-0.09l-0.108,-0.091l-0.106,-0.092l-0.105,-0.094l-0.104,-0.094l-0.103,-0.096l-0.102,-0.098l-0.1,-0.098l-0.099,-0.099l-0.098,-0.101l-0.097,-0.102l-0.096,-0.103l-0.094,-0.104l-0.093,-0.105l-0.092,-0.107l-0.091,-0.107l-0.089,-0.108l-0.088,-0.11l-0.087,-0.111l-0.086,-0.111l-0.084,-0.113l-0.082,-0.114l-0.082,-0.115l-0.08,-0.116l-0.079,-0.116l-0.077,-0.118l-0.076,-0.119l-0.074,-0.12l-0.073,-0.12l-0.072,-0.122l-0.07,-0.122l-0.069,-0.124l-0.067,-0.124l-0.066,-0.125l-0.064,-0.126l-0.063,-0.127l-0.061,-0.128l-0.06,-0.129l-0.058,-0.13l-0.057,-0.13l-0.055,-0.131l-0.053,-0.132l-0.052,-0.133l-0.051,-0.133l-0.048,-0.134l-0.047,-0.135l-0.046,-0.136l-0.044,-0.137l-0.042,-0.137l-0.041,-0.138l-0.038,-0.139l-0.038,-0.139l-0.035,-0.14l-0.034,-0.14l-0.032,-0.142l-0.03,-0.142l-0.029,-0.142l-0.026,-0.143l-0.025,-0.144l-0.024,-0.145l-0.021,-0.144l-0.02,-0.146l-0.018,-0.146l-0.016,-0.147l-0.014,-0.147l-0.012,-0.148l-0.01,-0.148l-0.009,-0.148l-0.007,-0.15l-0.005,-0.149l-0.002,-0.15l-0.001,-0.151l0.001,-0.151l0.002,-0.15l0.005,-0.149l0.007,-0.15l0.009,-0.148l0.01,-0.148l0.012,-0.148l0.014,-0.147l0.016,-0.147l0.018,-0.146l0.02,-0.146l0.021,-0.144l0.024,-0.145l0.025,-0.144l0.026,-0.143l0.029,-0.142l0.03,-0.142l0.032,-0.142l0.034,-0.14l0.035,-0.14l0.038,-0.139l0.038,-0.139l0.041,-0.138l0.042,-0.137l0.044,-0.137l0.046,-0.136l0.047,-0.135l0.048,-0.134l0.051,-0.133l0.052,-0.133l0.053,-0.132l0.055,-0.131l0.057,-0.13l0.058,-0.13l0.06,-0.129l0.061,-0.128l0.063,-0.127l0.064,-0.126l0.066,-0.125l0.067,-0.124l0.069,-0.124l0.07,-0.122l0.072,-0.122l0.073,-0.12l0.074,-0.12l0.076,-0.119l0.077,-0.118l0.079,-0.116l0.08,-0.116l0.082,-0.115l0.082,-0.114l0.084,-0.113l0.086,-0.111l0.087,-0.111l0.088,-0.11l0.089,-0.108l0.091,-0.107l0.092,-0.107l0.093,-0.105l0.094,-0.104l0.096,-0.103l0.097,-0.102l0.098,-0.101l0.099,-0.099l0.1,-0.098l0.102,-0.098l0.103,-0.096l0.104,-0.094l0.105,-0.094l0.106,-0.092l0.108,-0.091l0.108,-0.09l0.11,-0.088l0.11,-0.087l0.112,-0.086l0.113,-0.085l0.114,-0.083l0.115,-0.082l0.115,-0.081l0.117,-0.079l0.118,-0.078l0.119,-0.077l0.12,-0.075l0.121,-0.074l0.122,-0.072l0.123,-0.071l0.123,-0.069l0.125,-0.068l0.126,-0.067l0.126,-0.065l0.127,-0.064l0.129,-0.062l0.129,-0.061l0.13,-0.059l0.13,-0.058l0.132,-0.056l0.132,-0.054l0.134,-0.053l0.134,-0.052l0.134,-0.049l0.136,-0.049l0.136,-0.046l0.137,-0.045l0.138,-0.044l0.139,-0.042l0.139,-0.04l0.14,-0.038l0.141,-0.037l0.141,-0.035l0.142,-0.034l0.143,-0.031l0.143,-0.03l0.144,-0.029l0.144,-0.026l0.146,-0.025l0.145,-0.023l0.147,-0.021l0.147,-0.02l0.147,-0.017l0.148,-0.016l0.149,-0.014l0.149,-0.012l0.149,-0.011l0.151,-0.008l0.15,-0.007l0.151,-0.005l0.152,-0.002l0.152,-0.001l0.152,0.001Zm-0.269,2.793l-0.116,0.002l-0.117,0.004l-0.115,0.005l-0.115,0.006l-0.115,0.008l-0.114,0.009l-0.114,0.011l-0.113,0.012l-0.113,0.014l-0.112,0.015l-0.112,0.016l-0.112,0.018l-0.11,0.018l-0.111,0.021l-0.11,0.021l-0.109,0.023l-0.109,0.024l-0.108,0.026l-0.108,0.027l-0.107,0.028l-0.107,0.029l-0.106,0.031l-0.106,0.032l-0.105,0.033l-0.104,0.034l-0.104,0.036l-0.104,0.036l-0.102,0.038l-0.103,0.04l-0.101,0.04l-0.101,0.042l-0.101,0.042l-0.099,0.044l-0.099,0.045l-0.099,0.047l-0.098,0.047l-0.097,0.049l-0.096,0.049l-0.096,0.051l-0.095,0.052l-0.094,0.053l-0.094,0.054l-0.093,0.056l-0.092,0.056l-0.092,0.057l-0.091,0.059l-0.09,0.059l-0.089,0.061l-0.089,0.061l-0.087,0.063l-0.087,0.064l-0.086,0.064l-0.086,0.066l-0.084,0.066l-0.084,0.068l-0.083,0.068l-0.082,0.07l-0.081,0.07l-0.08,0.072l-0.08,0.072l-0.078,0.073l-0.078,0.075l-0.076,0.075l-0.076,0.076l-0.075,0.076l-0.074,0.078l-0.073,0.079l-0.072,0.079l-0.071,0.08l-0.07,0.081l-0.069,0.082l-0.068,0.083l-0.067,0.084l-0.066,0.084l-0.066,0.085l-0.064,0.086l-0.063,0.087l-0.062,0.087l-0.06,0.088l-0.06,0.089l-0.059,0.09l-0.058,0.09l-0.056,0.091l-0.056,0.092l-0.054,0.092l-0.054,0.093l-0.052,0.094l-0.051,0.094l-0.05,0.095l-0.049,0.096l-0.047,0.096l-0.047,0.097l-0.045,0.098l-0.044,0.098l-0.043,0.099l-0.042,0.099l-0.04,0.1l-0.04,0.1l-0.038,0.101l-0.037,0.102l-0.035,0.102l-0.035,0.103l-0.033,0.103l-0.032,0.104l-0.031,0.105l-0.029,0.104l-0.028,0.106l-0.027,0.106l-0.025,0.106l-0.025,0.107l-0.023,0.107l-0.021,0.108l-0.02,0.109l-0.019,0.109l-0.018,0.109l-0.016,0.11l-0.015,0.11l-0.014,0.111l-0.012,0.111l-0.011,0.112l-0.009,0.112l-0.008,0.112l-0.006,0.113l-0.005,0.114l-0.004,0.114l-0.002,0.114l-0.001,0.115l0.001,0.115l0.002,0.114l0.004,0.114l0.005,0.114l0.006,0.113l0.008,0.112l0.009,0.112l0.011,0.112l0.012,0.111l0.014,0.111l0.015,0.11l0.016,0.11l0.018,0.109l0.019,0.109l0.02,0.109l0.021,0.108l0.023,0.107l0.025,0.107l0.025,0.106l0.027,0.106l0.028,0.106l0.029,0.104l0.031,0.105l0.032,0.104l0.033,0.103l0.035,0.103l0.035,0.102l0.037,0.102l0.038,0.101l0.04,0.1l0.04,0.1l0.042,0.099l0.043,0.099l0.044,0.098l0.045,0.098l0.047,0.097l0.047,0.096l0.049,0.096l0.05,0.095l0.051,0.094l0.052,0.094l0.054,0.093l0.054,0.092l0.056,0.092l0.056,0.091l0.058,0.09l0.059,0.09l0.06,0.089l0.06,0.088l0.062,0.087l0.063,0.087l0.064,0.086l0.066,0.085l0.066,0.084l0.067,0.084l0.068,0.083l0.069,0.082l0.07,0.081l0.071,0.08l0.072,0.079l0.073,0.079l0.074,0.078l0.075,0.076l0.076,0.076l0.076,0.075l0.078,0.075l0.078,0.073l0.08,0.072l0.08,0.072l0.081,0.07l0.082,0.07l0.083,0.068l0.084,0.068l0.084,0.066l0.086,0.066l0.086,0.064l0.087,0.064l0.087,0.063l0.089,0.061l0.089,0.061l0.09,0.059l0.091,0.059l0.092,0.057l0.092,0.056l0.093,0.056l0.094,0.054l0.094,0.053l0.095,0.052l0.096,0.051l0.096,0.049l0.097,0.049l0.098,0.047l0.099,0.047l0.099,0.045l0.099,0.044l0.101,0.042l0.101,0.042l0.101,0.04l0.103,0.04l0.102,0.038l0.104,0.036l0.104,0.036l0.104,0.034l0.105,0.033l0.106,0.032l0.106,0.031l0.107,0.029l0.107,0.028l0.108,0.027l0.108,0.026l0.109,0.024l0.109,0.023l0.11,0.021l0.111,0.021l0.11,0.018l0.112,0.018l0.112,0.016l0.112,0.015l0.113,0.014l0.113,0.012l0.114,0.011l0.114,0.009l0.115,0.008l0.115,0.006l0.115,0.005l0.117,0.004l0.116,0.002l0.117,0.001l0.117,-0.001l0.116,-0.002l0.117,-0.004l0.115,-0.005l0.115,-0.006l0.115,-0.008l0.114,-0.009l0.114,-0.011l0.113,-0.012l0.113,-0.014l0.112,-0.015l0.112,-0.016l0.112,-0.018l0.11,-0.018l0.111,-0.021l0.11,-0.021l0.109,-0.023l0.109,-0.024l0.108,-0.026l0.108,-0.027l0.107,-0.028l0.107,-0.029l0.106,-0.031l0.106,-0.032l0.105,-0.033l0.104,-0.034l0.104,-0.036l0.104,-0.036l0.102,-0.038l0.103,-0.04l0.101,-0.04l0.101,-0.042l0.101,-0.042l0.099,-0.044l0.099,-0.045l0.099,-0.047l0.098,-0.047l0.097,-0.049l0.096,-0.049l0.096,-0.051l0.095,-0.052l0.094,-0.053l0.094,-0.054l0.093,-0.056l0.092,-0.056l0.092,-0.057l0.091,-0.059l0.09,-0.059l0.089,-0.061l0.089,-0.061l0.087,-0.063l0.087,-0.064l0.086,-0.064l0.086,-0.066l0.084,-0.066l0.084,-0.068l0.083,-0.068l0.082,-0.07l0.081,-0.07l0.08,-0.072l0.079,-0.072l0.079,-0.073l0.078,-0.075l0.076,-0.075l0.076,-0.076l0.075,-0.076l0.074,-0.078l0.073,-0.079l0.072,-0.079l0.071,-0.08l0.07,-0.081l0.069,-0.082l0.068,-0.083l0.067,-0.084l0.066,-0.084l0.066,-0.085l0.064,-0.086l0.063,-0.087l0.062,-0.087l0.06,-0.088l0.06,-0.089l0.059,-0.09l0.058,-0.09l0.056,-0.091l0.056,-0.092l0.054,-0.092l0.054,-0.093l0.052,-0.094l0.051,-0.094l0.05,-0.095l0.049,-0.096l0.047,-0.096l0.047,-0.097l0.045,-0.098l0.044,-0.098l0.043,-0.099l0.042,-0.099l0.04,-0.1l0.04,-0.1l0.038,-0.101l0.037,-0.102l0.035,-0.102l0.035,-0.103l0.033,-0.103l0.032,-0.104l0.031,-0.105l0.029,-0.104l0.028,-0.106l0.027,-0.106l0.025,-0.106l0.025,-0.107l0.023,-0.107l0.021,-0.108l0.02,-0.109l0.019,-0.109l0.018,-0.109l0.016,-0.11l0.015,-0.11l0.014,-0.111l0.012,-0.111l0.011,-0.112l0.009,-0.112l0.008,-0.112l0.006,-0.113l0.005,-0.114l0.004,-0.114l0.002,-0.114l0.001,-0.115l-0.001,-0.115l-0.002,-0.114l-0.004,-0.114l-0.005,-0.114l-0.006,-0.113l-0.008,-0.112l-0.009,-0.112l-0.011,-0.112l-0.012,-0.111l-0.014,-0.111l-0.015,-0.11l-0.016,-0.11l-0.018,-0.109l-0.019,-0.109l-0.02,-0.109l-0.021,-0.108l-0.023,-0.107l-0.025,-0.107l-0.025,-0.106l-0.027,-0.106l-0.028,-0.106l-0.029,-0.104l-0.031,-0.105l-0.032,-0.104l-0.033,-0.103l-0.035,-0.103l-0.035,-0.102l-0.037,-0.102l-0.038,-0.101l-0.04,-0.1l-0.04,-0.1l-0.042,-0.099l-0.043,-0.099l-0.044,-0.098l-0.045,-0.098l-0.047,-0.097l-0.047,-0.096l-0.049,-0.096l-0.05,-0.095l-0.051,-0.094l-0.052,-0.094l-0.054,-0.093l-0.054,-0.092l-0.056,-0.092l-0.056,-0.091l-0.058,-0.09l-0.059,-0.09l-0.06,-0.089l-0.06,-0.088l-0.062,-0.087l-0.063,-0.087l-0.064,-0.086l-0.066,-0.085l-0.066,-0.084l-0.067,-0.084l-0.068,-0.083l-0.069,-0.082l-0.07,-0.081l-0.071,-0.08l-0.072,-0.079l-0.073,-0.079l-0.074,-0.078l-0.075,-0.076l-0.076,-0.076l-0.076,-0.075l-0.078,-0.075l-0.079,-0.073l-0.079,-0.072l-0.08,-0.072l-0.081,-0.07l-0.082,-0.07l-0.083,-0.068l-0.084,-0.068l-0.084,-0.066l-0.086,-0.066l-0.086,-0.064l-0.087,-0.064l-0.087,-0.063l-0.089,-0.061l-0.089,-0.061l-0.09,-0.059l-0.091,-0.059l-0.092,-0.057l-0.092,-0.056l-0.093,-0.056l-0.094,-0.054l-0.094,-0.053l-0.095,-0.052l-0.096,-0.051l-0.096,-0.049l-0.097,-0.049l-0.098,-0.047l-0.099,-0.047l-0.099,-0.045l-0.099,-0.044l-0.101,-0.042l-0.101,-0.042l-0.101,-0.04l-0.103,-0.04l-0.102,-0.038l-0.104,-0.036l-0.104,-0.036l-0.104,-0.034l-0.105,-0.033l-0.106,-0.032l-0.106,-0.031l-0.107,-0.029l-0.107,-0.028l-0.108,-0.027l-0.108,-0.026l-0.109,-0.024l-0.109,-0.023l-0.11,-0.021l-0.111,-0.021l-0.11,-0.018l-0.112,-0.018l-0.112,-0.016l-0.112,-0.015l-0.113,-0.014l-0.113,-0.012l-0.114,-0.011l-0.114,-0.009l-0.115,-0.008l-0.115,-0.006l-0.115,-0.005l-0.117,-0.004l-0.116,-0.002l-0.117,-0.001l-0.117,0.001Z" style="fill:#1b1b1b;"/></g><rect x="20.222" y="15.801" width="2.083" height="18.399" style="fill:#1b1b1b;"/><rect x="28.064" y="15.801" width="2.083" height="18.399" style="fill:#1b1b1b;"/><path d="M34.814,22.351l-20.579,0l0,-2.083l20.579,0l0,2.083Z" style="fill:#1b1b1b;"/><path d="M34.814,29.632l-20.579,0l0,-2.083l20.579,0l0,2.083Z" style="fill:#1b1b1b;"/></svg>