<?xml version="1.0" encoding="UTF-8" standalone="no"?>
<!DOCTYPE svg PUBLIC "-//W3C//DTD SVG 1.1//EN" "http://www.w3.org/Graphics/SVG/1.1/DTD/svg11.dtd">
<svg width="100%" height="100%" viewBox="0 0 201 200" version="1.1" xmlns="http://www.w3.org/2000/svg" xmlns:xlink="http://www.w3.org/1999/xlink" xml:space="preserve" style="fill-rule:evenodd;clip-rule:evenodd;stroke-linejoin:round;stroke-miterlimit:1.41421;">
    <g transform="matrix(1,0,0,1,-1999,-740)">
        <g id="PATTERN-DESIGN" transform="matrix(1,0,0,1,-2431.96,-526.899)">
            <g>
                <g transform="matrix(0.475,0,0,0.475,4270.69,1138.15)">
                    <rect x="339.474" y="271.053" width="421.053" height="421.053" style="fill:none;"/>
                </g>
                <g transform="matrix(1,0,0,1,4381.94,16.8989)">
                    <rect x="70" y="1270" width="160" height="160" style="fill:none;"/>
                </g>
            </g>
            <g transform="matrix(1,0,0,1,2431.96,526.899)">
                <path d="M2032.52,846C2032.92,846.006 2033.29,846.171 2033.56,846.434L2033.57,846.441L2033.58,846.456C2033.83,846.718 2033.99,847.072 2034,847.464L2034.01,847.49L2034.01,907.489L2034,907.514C2033.99,908.336 2033.32,909 2032.5,909C2031.67,909 2031,908.328 2031,907.5C2031,907.439 2031,907.38 2031.01,907.321L2031.01,847.679C2031,847.62 2031,847.561 2031,847.5C2031,846.672 2031.67,846 2032.5,846L2032.5,846L2032.5,846L2032.52,846L2032.52,846ZM2052.5,846L2052.51,846C2053.33,846.004 2054,846.674 2054,847.5C2054,847.535 2054,847.569 2054,847.603L2054,907.397C2054,907.431 2054,907.465 2054,907.5C2054,908.328 2053.33,909 2052.5,909C2051.67,909 2051,908.328 2051,907.5L2051,907.497L2051,907.489L2051,847.49L2051,847.481C2051.01,847.077 2051.17,846.71 2051.44,846.443L2051.44,846.441L2051.44,846.44C2051.71,846.171 2052.08,846.004 2052.49,846L2052.49,846L2052.5,846ZM2072.49,846L2072.5,846C2073.33,846 2074,846.672 2074,847.5C2074,847.578 2073.99,847.655 2073.98,847.731L2073.98,907.269C2073.99,907.345 2074,907.422 2074,907.5C2074,908.328 2073.33,909 2072.5,909C2071.68,909 2071.02,908.345 2071,907.532L2070.98,907.489L2070.98,847.49L2071,847.446C2071.01,847.068 2071.17,846.725 2071.41,846.469L2071.42,846.441L2071.45,846.429C2071.71,846.17 2072.07,846.008 2072.47,846L2072.47,846L2072.49,846ZM2092.48,846C2092.49,846 2092.49,846 2092.5,846C2093.33,846 2094,846.672 2094,847.5C2094,847.606 2093.99,847.709 2093.97,847.808L2093.97,907.192C2093.99,907.291 2094,907.394 2094,907.5C2094,908.328 2093.33,909 2092.5,909C2092.08,909 2091.7,908.825 2091.42,908.545L2091.41,908.538L2091.4,908.521C2091.17,908.269 2091.02,907.936 2091,907.568L2090.97,907.489L2090.97,847.49L2091,847.408C2091.02,847.058 2091.16,846.741 2091.39,846.497L2091.41,846.441L2091.46,846.419C2091.72,846.169 2092.07,846.012 2092.46,846.001L2092.46,846L2092.48,846L2092.48,846ZM2168.54,906.001C2169.35,906.022 2170,906.686 2170,907.5C2170,908.328 2169.33,909 2168.5,909C2168.41,909 2168.33,908.993 2168.25,908.979L2108.75,908.979C2108.67,908.993 2108.59,909 2108.5,909C2107.67,909 2107,908.328 2107,907.5C2107,907.496 2107,907.493 2107,907.489L2107,907.489L2107,907.469L2107,907.468C2107.01,907.073 2107.17,906.716 2107.43,906.452L2107.44,906.419L2107.47,906.405C2107.73,906.167 2108.07,906.017 2108.44,906.001L2108.49,905.979L2168.49,905.979L2168.54,906.001ZM2168.51,886C2169.33,886.003 2170,886.674 2170,887.5C2170,888.328 2169.33,889 2168.5,889C2168.45,889 2168.4,888.998 2168.35,888.993L2108.65,888.993C2108.6,888.998 2108.55,889 2108.5,889C2107.67,889 2107,888.329 2107,887.503L2107,887.503L2107,887.5C2107,887.5 2107,887.483 2107,887.483L2107,887.483C2107.01,887.077 2107.17,886.71 2107.44,886.442L2107.44,886.434L2107.45,886.43C2107.71,886.17 2108.07,886.007 2108.47,886L2108.49,885.993L2168.49,885.993L2168.51,886ZM2168.35,866.007C2168.4,866.002 2168.45,866 2168.5,866C2169.33,866 2170,866.672 2170,867.5C2170,868.326 2169.33,868.997 2168.51,869L2168.49,869.007L2108.49,869.007L2108.47,869C2108.07,868.993 2107.71,868.83 2107.45,868.57L2107.44,868.566L2107.44,868.558C2107.17,868.29 2107.01,867.923 2107,867.517L2107,867.517L2107,867.5C2107,867.5 2107,867.497 2107,867.497L2107,867.497C2107,866.671 2107.67,866 2108.5,866C2108.55,866 2108.6,866.002 2108.65,866.007L2168.35,866.007ZM2168.25,846.021C2168.33,846.007 2168.41,846 2168.5,846C2169.33,846 2170,846.672 2170,847.5C2170,848.314 2169.35,848.978 2168.54,848.999L2168.49,849.021L2108.49,849.021L2108.44,848.999C2108.07,848.983 2107.73,848.833 2107.48,848.595L2107.44,848.581L2107.43,848.547C2107.17,848.284 2107.01,847.927 2107,847.532L2107,847.531L2107,847.511L2107,847.511C2107,847.507 2107,847.504 2107,847.5C2107,846.672 2107.67,846 2108.5,846C2108.59,846 2108.67,846.007 2108.75,846.021L2168.25,846.021ZM2108.5,771L2108.5,771L2108.52,771L2108.52,771C2108.92,771.006 2109.29,771.171 2109.55,771.434L2109.57,771.441L2109.58,771.456C2109.83,771.718 2109.99,772.072 2110,772.464L2110.01,772.49L2110.01,832.489L2110,832.514C2109.99,833.336 2109.32,834 2108.5,834C2107.67,834 2107,833.328 2107,832.5C2107,832.439 2107,832.38 2107.01,832.321L2107.01,772.679C2107,772.62 2107,772.561 2107,772.5C2107,771.672 2107.67,771 2108.5,771L2108.5,771ZM2128.5,771L2128.51,771C2129.33,771.004 2130,771.674 2130,772.5C2130,772.535 2130,772.569 2130,772.603L2130,832.397C2130,832.431 2130,832.465 2130,832.5C2130,833.328 2129.33,834 2128.5,834C2127.67,834 2127,833.328 2127,832.5L2127,832.497L2127,832.489L2127,772.49L2127,772.481C2127.01,772.077 2127.17,771.71 2127.44,771.443L2127.44,771.441L2127.44,771.44C2127.71,771.171 2128.08,771.004 2128.49,771L2128.49,771L2128.5,771ZM2148.49,771L2148.5,771C2149.33,771 2150,771.672 2150,772.5C2150,772.578 2149.99,772.655 2149.98,772.731L2149.98,832.269C2149.99,832.345 2150,832.422 2150,832.5C2150,833.328 2149.33,834 2148.5,834C2147.68,834 2147.02,833.345 2147,832.532L2146.98,832.489L2146.98,772.49L2147,772.446C2147.01,772.068 2147.17,771.725 2147.41,771.469L2147.42,771.441L2147.45,771.429C2147.71,771.17 2148.07,771.008 2148.47,771L2148.47,771L2148.49,771ZM2168.48,771C2168.49,771 2168.49,771 2168.5,771C2169.33,771 2170,771.672 2170,772.5C2170,772.606 2169.99,772.709 2169.97,772.808L2169.97,832.192C2169.99,832.291 2170,832.394 2170,832.5C2170,833.328 2169.33,834 2168.5,834C2168.08,834 2167.7,833.825 2167.42,833.545L2167.41,833.538L2167.4,833.521C2167.17,833.269 2167.02,832.936 2167,832.568L2166.97,832.489L2166.97,772.49L2167,772.408C2167.02,772.058 2167.16,771.741 2167.39,771.497L2167.41,771.441L2167.46,771.419C2167.72,771.169 2168.07,771.012 2168.46,771.001L2168.46,771L2168.48,771L2168.48,771ZM2092.6,831.003C2092.94,831.025 2093.26,831.165 2093.5,831.382L2093.54,831.398L2093.55,831.431C2093.83,831.703 2094,832.082 2094,832.5C2094,833.328 2093.33,834 2092.5,834C2092.38,834 2092.26,833.985 2092.14,833.958L2032.86,833.958C2032.74,833.985 2032.62,834 2032.5,834C2031.67,834 2031,833.328 2031,832.5C2031,832.489 2031,832.479 2031,832.468L2031,832.468L2031,832.448L2031,832.445C2031.02,832.068 2031.17,831.725 2031.41,831.469L2031.44,831.398L2031.52,831.365C2031.75,831.163 2032.05,831.031 2032.38,831.005L2032.49,830.958L2092.49,830.958L2092.6,831.003ZM2092.56,811.001C2092.93,811.016 2093.27,811.168 2093.53,811.408L2093.54,811.412L2093.54,811.421C2093.82,811.694 2094,812.077 2094,812.5C2094,813.328 2093.33,814 2092.5,814C2092.4,814 2092.3,813.99 2092.21,813.972L2032.79,813.972C2032.7,813.99 2032.6,814 2032.5,814C2031.67,814 2031,813.328 2031,812.5C2031,812.494 2031,812.488 2031,812.482L2031,812.482L2031,812.462L2031,812.461C2031.01,812.071 2031.17,811.719 2031.42,811.458L2031.44,811.412L2031.49,811.392C2031.74,811.166 2032.06,811.022 2032.42,811.002L2032.49,810.972L2092.49,810.972L2092.56,811.001ZM2092.52,791C2093.34,791.012 2094,791.68 2094,792.5C2094,793.328 2093.33,794 2092.5,794C2092.43,794 2092.36,793.995 2092.29,793.986L2032.71,793.986C2032.64,793.995 2032.57,794 2032.5,794C2031.67,794 2031,793.328 2031,792.5L2031,792.496L2031,792.496L2031,792.476L2031,792.475C2031.01,792.075 2031.17,791.713 2031.43,791.447L2031.44,791.426L2031.46,791.417C2031.72,791.169 2032.07,791.012 2032.46,791.001L2032.49,790.986L2092.49,790.986L2092.52,791ZM2092.49,771C2092.49,771 2092.5,771 2092.5,771C2093.33,771 2094,771.672 2094,772.5C2094,773.328 2093.33,774 2092.5,774C2092.5,774 2092.49,774 2092.49,774L2092.49,774L2032.49,774L2032.49,774C2031.67,773.995 2031.01,773.33 2031,772.51L2031,772.51L2031,772.5C2031,772.5 2031,772.49 2031,772.49L2031,772.49C2031.01,771.67 2031.67,771.005 2032.49,771L2032.49,771L2092.49,771L2092.49,771Z" style="fill:rgb(35,69,88);"/>
            </g>
        </g>
    </g>
</svg>
