<?xml version="1.0" encoding="UTF-8" standalone="no"?>
<!DOCTYPE svg PUBLIC "-//W3C//DTD SVG 1.1//EN" "http://www.w3.org/Graphics/SVG/1.1/DTD/svg11.dtd">
<svg width="100%" height="100%" viewBox="0 0 200 200" version="1.1" xmlns="http://www.w3.org/2000/svg" xmlns:xlink="http://www.w3.org/1999/xlink" xml:space="preserve" style="fill-rule:evenodd;clip-rule:evenodd;stroke-linejoin:round;stroke-miterlimit:1.41421;">
    <g transform="matrix(1,0,0,1,-2000,-540)">
        <g id="UI-DESIGN" transform="matrix(1,0,0,1,-1231.94,-726.899)">
            <g transform="matrix(1,0,0,1,4.88758e-06,0)">
                <g transform="matrix(0.475,0,0,0.475,3070.69,1138.15)">
                    <rect x="339.474" y="271.053" width="421.053" height="421.053" style="fill:none;"/>
                </g>
                <g transform="matrix(1,0,0,1,3181.94,16.8989)">
                    <rect x="70" y="1270" width="160" height="160" style="fill:none;"/>
                </g>
            </g>
            <g>
                <g transform="matrix(0.399747,0,0,1.0603,3110.7,1214.13)">
                    <path d="M552.753,96.929C556.061,96.941 559.363,97.015 562.647,97.164C568.854,97.447 574.978,97.985 580.876,98.768C586.805,99.555 592.501,100.59 597.834,101.845C603.405,103.156 608.578,104.708 613.222,106.459C617.866,108.21 621.981,110.159 625.46,112.26C628.788,114.271 631.532,116.418 633.62,118.654C635.697,120.877 637.124,123.186 637.874,125.526C638.27,126.764 638.467,128.009 638.498,129.256C638.608,142.286 638.608,155.316 638.498,168.345C638.465,169.661 638.247,170.974 637.807,172.279C636.974,174.747 635.387,177.178 633.08,179.509C630.038,182.583 625.747,185.478 620.412,188.069C614.691,190.848 607.779,193.274 600.018,195.225C592.89,197.017 585.056,198.406 576.844,199.327C567.788,200.342 558.299,200.784 548.859,200.649C538.999,200.508 529.219,199.729 520.06,198.343C510.07,196.831 500.861,194.605 493.026,191.822C484.827,188.91 478.156,185.396 473.515,181.526C470.299,178.844 468.064,175.999 466.885,173.09C466.248,171.519 465.932,169.934 465.892,168.345C465.783,155.316 465.783,142.286 465.892,129.256C465.924,128.009 466.121,126.764 466.517,125.526C467.266,123.186 468.693,120.877 470.77,118.654C474.93,114.202 481.696,110.113 490.441,106.736C495.029,104.965 500.15,103.391 505.678,102.054C511.114,100.741 516.94,99.658 523.017,98.835C528.897,98.039 535.006,97.487 541.203,97.19C544.297,97.042 547.406,96.96 550.523,96.934C551.267,96.93 552.01,96.928 552.753,96.929ZM551.685,99.758C548.662,99.769 545.645,99.837 542.643,99.974C536.978,100.231 531.39,100.722 526.008,101.437C514.928,102.908 504.78,105.328 496.475,108.459C488.17,111.59 481.752,115.416 477.849,119.594C475.953,121.623 474.652,123.729 473.968,125.865C473.605,126.997 473.426,128.134 473.397,129.274C473.288,142.292 473.288,155.31 473.397,168.327C473.434,169.779 473.722,171.227 474.304,172.663C475.379,175.317 477.419,177.913 480.353,180.36C484.591,183.894 490.684,187.104 498.172,189.763C505.326,192.304 513.734,194.336 522.856,195.717C531.216,196.982 540.143,197.693 549.144,197.822C557.927,197.948 566.757,197.527 575.168,196.562C582.797,195.687 590.06,194.369 596.64,192.671C603.542,190.89 609.684,188.695 614.772,186.193C619.51,183.864 623.327,181.27 626.049,178.52C628.154,176.393 629.602,174.175 630.362,171.922C630.764,170.729 630.963,169.53 630.994,168.327C631.103,155.31 631.103,142.292 630.994,129.274C630.965,128.134 630.785,126.997 630.423,125.865C629.739,123.729 628.437,121.623 626.542,119.594C622.639,115.416 616.22,111.59 607.915,108.459C599.61,105.328 589.462,102.908 578.382,101.437C573.001,100.722 567.412,100.231 561.748,99.974C558.746,99.837 555.729,99.769 552.706,99.758C552.366,99.758 552.025,99.758 551.685,99.758Z" style="fill:rgb(35,69,88);fill-rule:nonzero;"/>
                </g>
                <g transform="matrix(1,0,0,1,1981.44,1228.41)">
                    <rect x="1316.5" y="128.5" width="68" height="3" style="fill:rgb(35,69,88);fill-rule:nonzero;"/>
                </g>
                <g transform="matrix(1,0,0,1,1231.94,726.899)">
                    <path d="M2098,623L2101,623L2101,633.012L2098,633.012L2098,623ZM2101,600L2098,600L2098,560L2101,560L2101,600Z" style="fill:rgb(35,69,88);"/>
                </g>
                <g transform="matrix(1.1,0,0,0.511111,1851.94,1291.12)">
                    <path d="M1350,115L1340,115L1340,70L1350,70C1350,85 1350,100 1350,115ZM1342.73,75.87L1342.73,109.13L1347.27,109.13L1347.27,75.87C1345.76,75.87 1344.24,75.87 1342.73,75.87Z" style="fill:rgb(35,69,88);fill-rule:nonzero;"/>
                </g>
            </g>
        </g>
    </g>
</svg>
