<?xml version="1.0" encoding="UTF-8" standalone="no"?>
<!DOCTYPE svg PUBLIC "-//W3C//DTD SVG 1.1//EN" "http://www.w3.org/Graphics/SVG/1.1/DTD/svg11.dtd">
<svg width="100%" height="100%" viewBox="0 0 200 200" version="1.1" xmlns="http://www.w3.org/2000/svg" xmlns:xlink="http://www.w3.org/1999/xlink" xml:space="preserve" style="fill-rule:evenodd;clip-rule:evenodd;stroke-linejoin:round;stroke-miterlimit:1.41421;">
    <g transform="matrix(1,0,0,1,-2200,-540)">
        <g id="TYPOGRAPHY" transform="matrix(1,0,0,1,-1431.94,-726.899)">
            <g>
                <g transform="matrix(0.475,0,0,0.475,3470.69,1138.15)">
                    <rect x="339.474" y="271.053" width="421.053" height="421.053" style="fill:none;"/>
                </g>
                <g transform="matrix(1,0,0,1,3581.94,16.8989)">
                    <rect x="70" y="1270" width="160" height="160" style="fill:none;"/>
                </g>
            </g>
            <g transform="matrix(1,0,0,1,1431.94,726.899)">
                <path d="M2380,720L2220,720L2220,560L2380,560L2380,720ZM2223,563L2223,717L2377,717L2377,563C2325.67,563 2274.33,563 2223,563ZM2329.83,658.687C2327.97,661.057 2326.07,662.733 2324.12,663.715C2322.17,664.697 2319.86,665.187 2317.2,665.187C2313.59,665.187 2310.78,664.262 2308.77,662.411C2306.76,660.561 2305.76,657.999 2305.76,654.727C2305.76,651.138 2307.25,648.351 2310.24,646.365C2313.23,644.378 2317.56,643.329 2323.22,643.216L2330.23,643.013L2330.23,640.576C2330.23,637.077 2329.52,634.437 2328.1,632.654C2326.68,630.871 2324.39,629.979 2321.23,629.979C2317.82,629.979 2314.29,630.927 2310.63,632.823L2309.38,629.911C2313.42,628.016 2317.41,627.068 2321.36,627.068C2325.4,627.068 2328.42,628.117 2330.42,630.216C2332.41,632.315 2333.41,635.588 2333.41,640.034L2333.41,664.51L2330.94,664.51L2330.1,658.687L2329.83,658.687ZM2298.28,664.51L2294.38,664.51L2287.51,647.042L2267.4,647.042L2260.5,664.51L2256.67,664.51L2276.58,614.812L2278.78,614.812L2298.28,664.51ZM2317.4,662.141C2321.33,662.141 2324.43,661.018 2326.69,658.772C2328.96,656.526 2330.1,653.406 2330.1,649.411L2330.1,645.789L2323.66,646.06C2318.5,646.308 2314.81,647.115 2312.61,648.48C2310.41,649.846 2309.31,651.973 2309.31,654.862C2309.31,657.164 2310.01,658.953 2311.43,660.228C2312.84,661.503 2314.83,662.141 2317.4,662.141ZM2268.66,643.927L2286.36,643.927L2279.62,626.086C2279.06,624.687 2278.38,622.746 2277.59,620.263C2276.98,622.43 2276.32,624.393 2275.6,626.154L2268.66,643.927Z" style="fill:rgb(35,69,88);"/>
            </g>
        </g>
    </g>
</svg>
